<svg width="241" height="115" viewBox="0 0 241 115" fill="none" xmlns="http://www.w3.org/2000/svg">
<path d="M34.2617 92.2431C32.6503 91.5268 31.0293 90.7947 29.4145 90.037C28.9636 89.8328 28.4197 90.0116 28.2154 90.4625C28.0112 90.9133 28.1901 91.4572 28.6409 91.6615C30.2654 92.4351 31.8961 93.1831 33.5233 93.8896C33.9741 94.0939 34.5243 93.8895 34.7189 93.4228C34.8541 93.1446 34.8106 92.8229 34.6655 92.5847C34.5689 92.426 34.4342 92.3121 34.252 92.2272L34.2617 92.2431ZM23.8089 89.3373C22.2161 88.5445 20.6137 87.7357 19.0176 86.9014C18.5729 86.6716 18.3941 86.1277 18.6397 85.6734C18.8695 85.2288 19.4231 85.0657 19.8677 85.2955C21.4543 86.114 23.0408 86.9324 24.6239 87.7094C24.7806 87.7881 24.9152 87.902 25.0022 88.0449C25.1569 88.2989 25.1846 88.6302 25.0334 88.9181C24.8037 89.3627 24.2694 89.5575 23.8247 89.3277L23.8089 89.3373ZM64.7962 103.682C64.9219 103.888 64.9682 104.143 64.8903 104.408C64.7468 104.887 64.2449 105.171 63.7658 105.027C62.0634 104.519 60.3513 103.995 58.6295 103.454C58.1504 103.311 57.8983 102.79 58.0418 102.311C58.1853 101.831 58.7065 101.579 59.1856 101.723C60.8915 102.273 62.5939 102.781 64.2867 103.274C64.5166 103.33 64.6961 103.482 64.8121 103.672L64.7962 103.682ZM201.087 12.57C199.53 11.7992 197.931 11.0319 196.291 10.268C195.84 10.0637 195.645 9.52941 195.84 9.06271C196.044 8.6119 196.578 8.41713 197.045 8.61171C198.711 9.38182 200.335 10.1554 201.893 10.9262C202.049 11.0049 202.168 11.1284 202.255 11.2713C202.41 11.5253 202.437 11.8566 202.286 12.1445C202.057 12.5891 201.513 12.768 201.078 12.5541L201.087 12.57ZM14.3084 84.3501C12.7439 83.4965 11.1857 82.6173 9.63366 81.7125C9.19525 81.4572 9.0578 80.9098 9.29727 80.4811C9.55261 80.0427 10.1 79.9052 10.5287 80.1446C12.0711 81.0335 13.6293 81.9127 15.1682 82.7601C15.309 82.8485 15.4182 82.9562 15.4955 83.0832C15.6598 83.3531 15.6716 83.694 15.5205 83.9819C15.281 84.4107 14.7274 84.5737 14.2987 84.3342L14.3084 84.3501ZM54.6057 100.42C54.7411 100.643 54.7812 100.923 54.6777 101.182C54.5086 101.655 54.0033 101.897 53.5401 101.744C51.8563 101.159 50.1725 100.574 48.4852 99.9473C48.0282 99.7686 47.7761 99.2474 47.9548 98.7904C48.1238 98.3175 48.6547 98.0813 49.1117 98.26C50.7893 98.8707 52.4572 99.4654 54.1411 100.05C54.3551 100.116 54.509 100.262 54.6154 100.436L54.6057 100.42ZM186.477 6.12434C186.02 5.94563 185.784 5.41481 185.962 4.95779C186.141 4.50076 186.672 4.26457 187.129 4.44328C188.835 5.10154 190.494 5.7888 192.102 6.46366C192.285 6.54853 192.429 6.67828 192.516 6.82116C192.661 7.0593 192.695 7.36513 192.575 7.6337C192.381 8.10039 191.856 8.31101 191.389 8.11642C189.782 7.44158 188.132 6.77022 186.451 6.11816L186.477 6.12434ZM44.1134 96.3419C44.3115 96.4171 44.4558 96.5468 44.5525 96.7055C44.6975 96.9437 44.7217 97.2336 44.6279 97.5084C44.4492 97.9654 43.9184 98.2016 43.4613 98.0229C41.8058 97.3771 40.1468 96.6898 38.4878 96.0025C38.0308 95.8238 37.8105 95.2834 38.0051 94.8167C38.1997 94.35 38.7243 94.1393 39.191 94.3339C40.8341 95.0308 42.4834 95.7022 44.1293 96.3322L44.1134 96.3419ZM176.446 2.48267C175.973 2.31362 175.715 1.81801 175.875 1.32923C176.044 0.85633 176.539 0.59805 177.028 0.757425C178.753 1.33905 180.447 1.94004 182.089 2.52858C182.287 2.60379 182.457 2.73973 182.554 2.89849C182.689 3.12075 182.729 3.40102 182.635 3.67579C182.466 4.1487 181.935 4.38487 181.478 4.20615C179.836 3.61761 178.168 3.02285 176.443 2.44122L176.446 2.48267ZM185.132 104.484C186.847 103.94 188.526 103.375 190.171 102.787C190.584 102.644 191.031 102.807 191.254 103.172C191.283 103.219 191.321 103.283 191.35 103.33C191.522 103.792 191.274 104.313 190.813 104.485C189.153 105.082 187.442 105.667 185.711 106.221C185.24 106.377 184.735 106.119 184.569 105.632C184.413 105.161 184.687 104.646 185.158 104.49L185.132 104.484ZM195.15 100.886C196.813 100.222 198.447 99.5096 200.039 98.801C200.465 98.607 200.954 98.7664 201.186 99.1474C201.205 99.1791 201.225 99.2109 201.244 99.2427C201.458 99.7003 201.26 100.234 200.793 100.431C199.178 101.175 197.535 101.871 195.84 102.555C195.389 102.743 194.836 102.514 194.664 102.053C194.466 101.586 194.699 101.074 195.166 100.876L195.15 100.886ZM4.9838 78.9728C3.46353 78.0487 1.93361 77.1088 0.409875 76.1433C-0.0126537 75.8783 -0.134248 75.3212 0.13076 74.8987C0.395768 74.4762 0.952842 74.3546 1.37537 74.6196C2.88943 75.5692 4.40349 76.5188 5.9141 77.427C6.04527 77.4995 6.13849 77.6168 6.20616 77.7279C6.37051 77.9978 6.37609 78.3644 6.20909 78.6619C5.94408 79.0845 5.39668 79.222 4.95828 78.9666L4.9838 78.9728ZM174.88 107.375C176.621 106.946 178.342 106.486 180.039 106.019C180.43 105.911 180.846 106.093 181.049 106.426C181.087 106.49 181.136 106.569 181.142 106.652C181.283 107.133 180.999 107.632 180.519 107.772C178.807 108.249 177.085 108.709 175.319 109.132C174.829 109.257 174.345 108.963 174.221 108.473C174.097 107.983 174.39 107.5 174.88 107.375ZM204.819 96.5C206.411 95.683 207.983 94.8343 209.488 93.9829C209.901 93.7315 210.447 93.8778 210.708 94.3065L210.718 94.3223C210.979 94.7509 210.817 95.3067 210.379 95.5518C208.841 96.4226 207.253 97.281 205.63 98.1173C205.182 98.3466 204.632 98.1589 204.412 97.7268C204.183 97.2788 204.355 96.7389 204.803 96.5097L204.819 96.5ZM169.698 108.551C170.083 108.468 170.473 108.644 170.666 108.962C170.715 109.041 170.773 109.137 170.774 109.245C170.872 109.729 170.563 110.222 170.079 110.321C168.351 110.698 166.577 111.038 164.794 111.363C164.301 111.445 163.824 111.127 163.741 110.633C163.658 110.139 163.977 109.662 164.47 109.579C166.237 109.265 167.976 108.903 169.698 108.551ZM127.362 112.72C127.687 112.718 127.969 112.895 128.124 113.149C128.211 113.292 128.266 113.454 128.264 113.629C128.264 114.13 127.855 114.531 127.355 114.531C125.586 114.52 123.781 114.488 121.983 114.429C121.473 114.413 121.087 113.995 121.113 113.501C121.129 112.991 121.547 112.605 122.041 112.631C123.84 112.689 125.603 112.726 127.372 112.736L127.362 112.72ZM148.663 111.784C149.011 111.746 149.344 111.936 149.518 112.221C149.585 112.332 149.621 112.463 149.641 112.603C149.683 113.1 149.319 113.539 148.832 113.597C147.06 113.761 145.279 113.91 143.473 114.052C142.976 114.094 142.543 113.705 142.501 113.208C142.46 112.711 142.849 112.278 143.346 112.236C145.137 112.103 146.902 111.964 148.648 111.793L148.663 111.784ZM233.603 38.8413C232.723 37.3966 231.704 35.972 230.585 34.5639C230.286 34.1801 230.346 33.5996 230.73 33.3006C231.129 32.992 231.694 33.0616 231.993 33.4453C233.15 34.9169 234.209 36.405 235.127 37.9132C235.388 38.3419 235.252 38.9039 234.839 39.1552C234.41 39.4162 233.858 39.2955 233.597 38.8669L233.603 38.8413ZM210.423 17.6795C208.947 16.7934 207.405 15.9045 205.815 15.0447C205.386 14.8052 205.223 14.2516 205.463 13.8228C205.702 13.3941 206.256 13.2311 206.685 13.4705C208.31 14.3525 209.862 15.2572 211.363 16.1495C211.494 16.222 211.587 16.3393 211.655 16.4505C211.819 16.7203 211.825 17.0869 211.658 17.3845C211.393 17.807 210.845 17.9445 210.407 17.6891L210.423 17.6795ZM238.445 58.657C238.634 56.9311 238.674 55.2094 238.554 53.4761C238.513 52.979 238.902 52.5461 239.399 52.5046C239.756 52.4832 240.063 52.666 240.227 52.9359C240.305 53.0629 240.341 53.1934 240.361 53.3335C240.487 55.1497 240.452 57.0212 240.253 58.8396C240.202 59.3277 239.749 59.6908 239.261 59.6399C238.763 59.573 238.409 59.1354 238.46 58.6473L238.445 58.657ZM160.27 111.223C160.353 111.717 160.008 112.188 159.505 112.255C157.75 112.518 155.97 112.775 154.186 112.991C153.699 113.048 153.244 112.694 153.187 112.207C153.12 111.704 153.483 111.264 153.971 111.207C155.754 110.991 157.503 110.754 159.248 110.474C159.627 110.418 159.976 110.597 160.159 110.899C160.217 110.994 160.269 111.115 160.28 111.239L160.27 111.223ZM138.116 114.333C136.338 114.415 134.54 114.465 132.733 114.499C132.242 114.515 131.825 114.116 131.825 113.616C131.825 113.115 132.208 112.708 132.708 112.708C134.5 112.683 136.272 112.627 138.04 112.529C138.381 112.517 138.679 112.684 138.853 112.97C138.93 113.097 138.976 113.244 138.98 113.393C139.006 113.9 138.607 114.317 138.116 114.333ZM230.058 78.6932C229.664 78.3674 229.609 77.8131 229.935 77.4189C231.07 76.0311 232.103 74.6185 233.034 73.1811C233.299 72.7586 233.856 72.6369 234.289 72.9178C234.404 73 234.503 73.0917 234.571 73.2029C234.745 73.4886 234.751 73.8552 234.568 74.1624C233.609 75.6606 232.522 77.1278 231.348 78.5604C231.038 78.945 230.468 79.0093 230.074 78.6835L230.058 78.6932ZM213.776 92.482C213.48 92.0313 213.62 91.5108 214.039 91.2339C215.549 90.2485 217.009 89.2507 218.383 88.2184C218.792 87.9257 219.341 88.005 219.65 88.4046C219.659 88.4205 219.679 88.4522 219.688 88.4681C219.93 88.8649 219.831 89.382 219.454 89.6555C218.049 90.7071 216.541 91.7339 215.014 92.7289C214.586 92.9899 214.043 92.8851 213.766 92.4661L213.776 92.482ZM237.721 48.3906C237.308 46.7483 236.736 45.0944 236.034 43.4764C235.836 43.0091 236.043 42.4913 236.501 42.2779C236.911 42.0935 237.4 42.2529 237.632 42.634C237.651 42.6657 237.671 42.6974 237.7 42.7451C238.434 44.4521 239.048 46.211 239.493 47.9422C239.618 48.4323 239.324 48.9156 238.834 49.04C238.344 49.1643 237.861 48.871 237.737 48.3809L237.721 48.3906ZM222.428 86.2123C222.113 85.8382 222.147 85.2514 222.522 84.9365C223.885 83.78 225.184 82.5537 226.384 81.344C226.729 80.9816 227.296 80.9842 227.659 81.3293C227.698 81.3928 227.752 81.4467 227.791 81.5102C228.004 81.8594 227.959 82.3219 227.658 82.614C226.42 83.8686 225.079 85.0983 223.678 86.2997C223.288 86.6242 222.717 86.5802 222.402 86.2061L222.428 86.2123ZM235.984 69.84C235.533 69.6358 235.328 69.0856 235.558 68.641C236.31 67.0518 236.94 65.4059 237.413 63.7897C237.557 63.3106 238.059 63.0268 238.538 63.1703C238.752 63.2358 238.947 63.378 239.063 63.5685C239.189 63.7749 239.235 64.0296 239.157 64.2947C238.659 66.013 237.994 67.7452 237.208 69.4208C237.004 69.8716 236.454 70.076 236.009 69.8463L235.984 69.84ZM84.6416 110.182C82.886 109.837 81.1367 109.466 79.3777 109.079C78.8923 108.961 78.5864 108.494 78.6947 107.993C78.8127 107.508 79.2793 107.202 79.7805 107.31C81.5236 107.707 83.2633 108.062 84.9933 108.401C85.2488 108.463 85.4697 108.612 85.5954 108.818C85.7114 109.009 85.7639 109.238 85.708 109.468C85.6156 109.959 85.1331 110.275 84.6416 110.182ZM219.181 23.663C217.81 22.6264 216.371 21.587 214.886 20.5767C214.479 20.302 214.373 19.7352 214.638 19.3127C214.913 18.906 215.48 18.8003 215.886 19.075C217.407 20.1075 218.881 21.1689 220.287 22.2276C220.377 22.3035 220.451 22.3891 220.509 22.4844C220.692 22.786 220.686 23.2037 220.452 23.4985C220.151 23.8989 219.581 23.9632 219.181 23.663ZM75.1337 106.505C75.2497 106.696 75.296 106.951 75.2401 107.18C75.1222 107.666 74.63 107.965 74.1447 107.847C72.4078 107.425 70.6771 106.978 68.9367 106.514C68.4513 106.396 68.1675 105.894 68.3014 105.399C68.4193 104.914 68.9211 104.63 69.4161 104.764C71.1406 105.237 72.8617 105.669 74.5828 106.101C74.8126 106.157 75.0177 106.315 75.1337 106.505ZM111.243 113.875C110.739 113.834 110.369 113.406 110.411 112.902C110.452 112.398 110.88 112.028 111.384 112.07C113.164 112.205 114.943 112.34 116.694 112.427C117.003 112.434 117.269 112.621 117.414 112.859C117.511 113.018 117.55 113.19 117.542 113.39C117.516 113.885 117.082 114.28 116.578 114.238C114.802 114.145 113.006 114.019 111.217 113.869L111.243 113.875ZM106.758 112.014C106.855 112.173 106.913 112.376 106.88 112.571C106.829 113.059 106.385 113.438 105.887 113.371C104.12 113.185 102.343 112.983 100.547 112.749C100.049 112.683 99.7111 112.235 99.7621 111.747C99.829 111.25 100.276 110.912 100.764 110.963C102.535 111.19 104.312 111.392 106.054 111.572C106.357 111.605 106.587 111.77 106.732 112.008L106.758 112.014ZM227.113 30.6497C225.935 29.4301 224.649 28.2113 223.29 27.0152C222.911 26.6797 222.872 26.1157 223.208 25.7374C223.543 25.359 224.107 25.3203 224.486 25.6557C225.88 26.8739 227.196 28.1404 228.418 29.3979C228.457 29.4614 228.502 29.4994 228.541 29.5629C228.753 29.9122 228.709 30.3747 228.392 30.6764C228.037 31.023 227.46 31.0045 227.113 30.6497ZM89.9207 111.168C89.4292 111.075 89.0977 110.603 89.1901 110.111C89.2825 109.62 89.7395 109.298 90.2469 109.381C91.999 109.685 93.767 109.979 95.5156 110.242C95.8028 110.285 96.0079 110.443 96.1432 110.665C96.2496 110.839 96.2924 111.053 96.2683 111.263C96.2014 111.761 95.7286 112.092 95.2308 112.026C93.4663 111.773 91.6983 111.478 89.9207 111.168Z" fill="#872BFF"/>
</svg>
